<?xml version="1.0" encoding="UTF-8"?>
<svg xmlns="http://www.w3.org/2000/svg" viewBox="0 0 187 165" fill="white">
  <g>
    <path d="m64.69,152.99c7.38-7.17,14.61-14.17,21.81-21.19,8.47-8.26,14.18-18.48,18.32-29.24,6.33-16.46-.17-29.56-18.02-32.15-9.47-1.37-18.11-.06-26.72,7.5,3.08-.39,4.85-.61,6.63-.83,1.98-.24,3.95-.6,5.94-.69,4.47-.2,9.02-.83,13.41-.28,12.11,1.51,17.27,10.17,14.02,23.6-2.52,10.4-7.93,19.4-15.46,26.93-13.93,13.94-28.39,27.52-48.2,32.35-11.68,2.85-23.83,3.8-35.76,5.61-.22-.45-.44-.9-.66-1.35,1.16-1.92,2.32-3.84,3.48-5.76,11.37-18.7,22.92-37.3,34.08-56.13,11.92-20.11,22.52-41,38.22-58.71,12.31-13.89,27.38-21.03,45.82-19.53,6.41.52,12.95,2.88,18.78,5.73,3.15,1.54,5.86,5.52,7.19,9.01,6.44,16.92,5.87,33.71-1.93,50.24-10.29,21.8-26.07,38.45-47.13,49.89-9.72,5.28-20.01,9.51-30.08,14.14-1.14.52-2.48.59-3.73.88Zm60.09-116.07c-4.72.08-9.3,4.45-9.2,8.78.09,3.9,5.64,8.62,10.22,8.71,3.75.07,8.45-4.92,8.53-9.05.08-4.15-4.87-8.52-9.55-8.44Z"></path>
    <path d="m158.01,61.41c-1.35-8.85-2.53-16.63-3.84-25.22,8.31,3.4,16.29,6.67,25.6,10.47-7.77,5.27-14.55,9.87-21.75,14.75Z"></path>
  </g>
</svg>
