<?xml version="1.0" encoding="UTF-8"?>
<svg xmlns="http://www.w3.org/2000/svg" viewBox="0 0 327.02 163.59" fill="#fff">
  <g id='circle'>
    <path d="m248.22,93.88c-59.09.86-57.35-93.1-.56-93.88,57.19,1.12,64,91.48.56,93.88Zm37.13-50.88c.86-16.04-25.28-19.28-25.94-1.95-.48,19.32,24.95,20.86,25.94,1.95Zm-47.9.66c.11-16.19-26.84-17.03-26.53,1.24-.47,16.73,28.04,17.59,26.53-1.24Zm6.86,40.44c19.84-.05,15.95-25.06.28-25.84-15.01.5-18.23,26.84-.28,25.84Zm2.56-50.14c16.57.02,15.97-26.3-.9-26.02-17.28,0-15.25,26.06.9,26.02Zm9.5,12.65c.19-9.16-14.05-8.74-13.75-.03.7,7.81,13.65,8.21,13.75.03Z"></path>
  </g>
  <g>
    <path d="m64.69,151.99c7.38-7.17,14.61-14.17,21.81-21.19,8.47-8.26,14.18-18.48,18.32-29.24,6.33-16.46-.17-29.56-18.02-32.15-9.47-1.37-18.11-.06-26.72,7.5,3.08-.39,4.85-.61,6.63-.83,1.98-.24,3.95-.6,5.94-.69,4.47-.2,9.02-.83,13.41-.28,12.11,1.51,17.27,10.17,14.02,23.6-2.52,10.4-7.93,19.4-15.46,26.93-13.93,13.94-28.39,27.52-48.2,32.35-11.68,2.85-23.83,3.8-35.76,5.61-.22-.45-.44-.9-.66-1.35,1.16-1.92,2.32-3.84,3.48-5.76,11.37-18.7,22.92-37.3,34.08-56.13,11.92-20.11,22.52-41,38.22-58.71,12.31-13.89,27.38-21.03,45.82-19.53,6.41.52,12.95,2.88,18.78,5.73,3.15,1.54,5.86,5.52,7.19,9.01,6.44,16.92,5.87,33.71-1.93,50.24-10.29,21.8-26.07,38.45-47.13,49.89-9.72,5.28-20.01,9.51-30.08,14.14-1.14.52-2.48.59-3.73.88Zm60.09-116.07c-4.72.08-9.3,4.45-9.2,8.78.09,3.9,5.64,8.62,10.22,8.71,3.75.07,8.45-4.92,8.53-9.05.08-4.15-4.87-8.52-9.55-8.44Z"></path>
    <path d="m158.01,60.41c-1.35-8.85-2.53-16.63-3.84-25.22,8.31,3.4,16.29,6.67,25.6,10.47-7.77,5.27-14.55,9.87-21.75,14.75Z"></path>
  </g>
  <g>
    <path d="m237.05,149.47c-2.21,1.64-4.34,2.73-6.94,2.04-2.42-.64-4.47-1.83-6.08-3.79-2.23-2.71-1.79-7.72.03-10.17,1.6-2.16,3.54-3.53,6.25-3.84,2.75-.31,4.66,1.19,6.67,3.23v-2.79c1.33.1,2.55.19,3.93.29.1,1.57.24,3.14.29,4.71.12,3.93.19,7.86.28,11.79.09,3.87-2.36,7.54-6.07,9.11-3.56,1.5-7.75.8-10.25-2.07-1.04-1.2-1.53-2.91-2.16-4.43-.3-.72.1-1.15.91-1.36,1.76-.45,2.72-.2,3.42,1.06,1.65,2.97,3.06,3.65,6.01,2.91,2.18-.55,3.72-2.76,3.77-5.45,0-.29-.03-.59-.06-1.23Zm-5.59-11.34c-2.75.02-4.55,1.86-4.53,4.63.02,2.42,2.44,4.74,4.89,4.68,2.66-.06,5.32-2.42,5.29-4.69-.03-2.47-2.69-4.65-5.64-4.62Z"></path>
    <path d="m322.76,136.18v-10.72h4.27v26.39c-1.42-.08-2.73-.15-4.08-.22-.1-.68-.19-1.3-.31-2.14-1.9,1.88-4.12,2.99-6.49,2.35-1.87-.5-3.78-1.6-5.2-2.94-3.77-3.55-2.82-9.15-.26-12.33,2.65-3.3,6.68-3.49,12.09-.4Zm-5.42,1.96c-2.52.03-4.23,1.93-4.17,4.61.07,2.64,2.21,4.97,4.57,4.98,2.48,0,4.94-2.54,4.88-5.07-.06-2.59-2.36-4.56-5.29-4.52Z"></path>
    <path d="m177.12,149.26c-.08,1.02-.13,1.61-.2,2.35-1.44-.1-2.84-.19-4.24-.29v-26.17h4.43v10.6c2.09-.7,3.96-1.61,5.93-1.9,2.21-.33,3.98,1.01,5.49,2.53,3.06,3.08,3.79,7.97,1.32,11.66-3.46,5.16-7.92,4.79-12.73,1.22Zm9.78-6.18c.02-3.22-1.79-5.15-4.83-5.16-2.69,0-5.11,2.05-5.11,4.34,0,2.76,2.66,5.5,5.36,5.52,2.38.02,4.57-2.22,4.58-4.7Z"></path>
    <path d="m269.5,149.38c-.19.87-.33,1.49-.48,2.18h-3.88v-26.1h4.5v10.82c4.52-3.15,7.5-3.07,10.91.16,2.9,2.75,3.47,7.97,1.22,11.57-1.34,2.13-3.29,3.4-5.76,3.88-2.6.5-4.5-.99-6.51-2.52Zm4.79-11.18c-2.87-.03-4.94,1.79-5,4.38-.06,2.89,2.21,5.2,5.12,5.22,2.3.01,4.52-2.23,4.56-4.6.04-2.97-1.82-4.97-4.68-4.99Z"></path>
    <path d="m262.02,144.19h-12.61c-.21,1.66.78,2.46,1.94,3.08,1.55.83,3.4,1.45,4.73.11,1.64-1.67,3.4-1.04,5.21-1.16-.32,3.18-4.58,6.17-8.61,5.67-4.03-.51-9.14-4.57-8.1-10.52.82-4.72,3.93-7.63,9.26-7.32,5.01.29,8.3,4.34,8.18,10.14Zm-4.97-3.27c-.26-2.19-2.13-3.37-4.73-2.99-2.04.29-2.99,1.27-2.73,2.99h7.46Z"></path>
    <path d="m203.34,151.65v-17.05c1.25-.12,2.46-.24,3.85-.37.05.89.1,1.66.16,2.61.59-.52,1.09-1.02,1.65-1.45,3.71-2.93,8.77-1.13,9.79,3.49.18.82.32,1.67.33,2.51.04,3.37.02,6.75.02,10.2h-4.19c0-2.55.02-5.12,0-7.69-.01-1.09.04-2.21-.2-3.26-.47-2.1-2.48-3.02-4.49-2.21-1.7.69-2.79,2.2-2.77,4.03.02,2.34.1,4.68.2,7.01.1,2.16.13,2.16-1.97,2.17-.74,0-1.48,0-2.37,0Z"></path>
    <path d="m299.38,136.94c1.98-1.93,3.96-3.44,6.91-3.19-.18,1.2-.27,2.36-.56,3.47-.09.35-.71.76-1.12.81-3.52.36-5.07,2.01-5.07,5.56,0,2.24-.03,4.48.04,6.72.03.98-.33,1.37-1.27,1.34-.94-.02-1.88,0-3.04,0v-17.24c1.11-.07,2.32-.15,3.72-.24.12.87.24,1.72.39,2.76Z"></path>
    <path d="m198.79,151.63h-4.17v-17.37h4.17v17.37Z"></path>
    <path d="m286.69,134.4h4.08v17.11c-1.17.14-2.28.35-3.4.35-.22,0-.64-.77-.65-1.18-.05-3.48-.03-6.96-.03-10.43,0-1.88,0-3.76,0-5.84Z"></path>
    <path d="m199.46,128.05c0,1.59-1.28,2.86-2.97,2.91-1.29.04-2.94-1.7-2.94-3.09,0-1.27,1.53-2.8,2.82-2.82,1.61-.03,3.07,1.4,3.08,3Z"></path>
    <path d="m291.47,128.03c.03,1.3-1.68,2.92-3.08,2.93-1.35,0-2.75-1.51-2.77-3-.02-1.28,1.48-2.85,2.74-2.87,1.27-.02,3.08,1.69,3.11,2.94Z"></path>
  </g>

  <style>
    #circle {
      transform-box: fill-box;
      transform-origin: center;
      animation: circle-rotate 30s infinite; 
    }

    @keyframes circle-rotate {
      0% {
        transform: rotate(0deg);
        animation-timing-function: ease-in-out;
      }
      10% {
        transform: rotate(360deg); 
        animation-timing-function: ease-in-out;
      }
      100% {
        transform: rotate(360deg);
      }
    }
  </style>
</svg>
